<?xml version="1.0" encoding="UTF-8" standalone="no"?>
<!-- Created with Inkscape (http://www.inkscape.org/) -->

<svg
   width="1920"
   height="1080"
   viewBox="0 0 508 285.75"
   version="1.1"
   id="svg1"
   inkscape:version="1.3.2 (091e20e, 2023-11-25, custom)"
   sodipodi:docname="maquetita.svg"
   inkscape:export-filename="maquetita.png"
   inkscape:export-xdpi="96"
   inkscape:export-ydpi="96"
   xmlns:inkscape="http://www.inkscape.org/namespaces/inkscape"
   xmlns:sodipodi="http://sodipodi.sourceforge.net/DTD/sodipodi-0.dtd"
   xmlns="http://www.w3.org/2000/svg"
   xmlns:svg="http://www.w3.org/2000/svg">
  <sodipodi:namedview
     id="namedview1"
     pagecolor="#ffffff"
     bordercolor="#000000"
     borderopacity="0.25"
     inkscape:showpageshadow="2"
     inkscape:pageopacity="0.0"
     inkscape:pagecheckerboard="0"
     inkscape:deskcolor="#d1d1d1"
     inkscape:document-units="px"
     showguides="false"
     inkscape:zoom="0.45961941"
     inkscape:cx="890.95454"
     inkscape:cy="443.84549"
     inkscape:window-width="1920"
     inkscape:window-height="986"
     inkscape:window-x="-11"
     inkscape:window-y="-11"
     inkscape:window-maximized="1"
     inkscape:current-layer="layer2" />
  <defs
     id="defs1" />
  <g
     inkscape:label="Capa 1"
     inkscape:groupmode="layer"
     id="layer1"
     sodipodi:insensitive="true">
    <rect
       style="opacity:0.606171;fill:#d39200;fill-opacity:1;fill-rule:evenodd;stroke:none;stroke-width:2.30423;stroke-linecap:square;stroke-linejoin:round;stroke-opacity:0"
       id="rect2"
       width="38.943314"
       height="283.44788"
       x="0.33361527"
       y="1.1521107"
       transform="matrix(1,0,0.00383053,0.99999266,0,0)" />
    <rect
       style="opacity:0.606171;fill:#d39200;fill-opacity:1;fill-rule:evenodd;stroke:none;stroke-width:2.30423;stroke-linecap:square;stroke-linejoin:round;stroke-opacity:0"
       id="rect2-4"
       width="38.943314"
       height="283.44788"
       x="170.21361"
       y="1.1521109"
       transform="matrix(1,0,0.00383053,0.99999266,0,0)" />
    <rect
       style="opacity:0.672632;fill:#ffb50f;fill-rule:evenodd;stroke:none;stroke-width:2.30423;stroke-linecap:square;stroke-linejoin:round;stroke-opacity:0"
       id="rect3"
       width="38.943314"
       height="283.44788"
       x="42.803616"
       y="1.1521107"
       transform="matrix(1,0,0.00383053,0.99999266,0,0)" />
    <rect
       style="opacity:0.606171;fill:#d39200;fill-opacity:1;fill-rule:evenodd;stroke:none;stroke-width:2.30423;stroke-linecap:square;stroke-linejoin:round;stroke-opacity:0"
       id="rect4"
       width="38.943314"
       height="283.44788"
       x="85.273613"
       y="1.1521107"
       transform="matrix(1,0,0.00383053,0.99999266,0,0)" />
    <rect
       style="opacity:0.672632;fill:#ffb50f;fill-rule:evenodd;stroke:none;stroke-width:2.30423;stroke-linecap:square;stroke-linejoin:round;stroke-opacity:0"
       id="rect5"
       width="38.943314"
       height="283.44788"
       x="212.68361"
       y="1.1521124"
       transform="matrix(1,0,0.00383053,0.99999266,0,0)" />
    <rect
       style="opacity:0.672632;fill:#ffb50f;fill-rule:evenodd;stroke:none;stroke-width:2.30423;stroke-linecap:square;stroke-linejoin:round;stroke-opacity:0"
       id="rect9"
       width="38.943314"
       height="283.44788"
       x="127.74361"
       y="1.1521109"
       transform="matrix(1,0,0.00383053,0.99999266,0,0)" />
    <rect
       style="opacity:0.606171;fill:#d39200;fill-opacity:1;fill-rule:evenodd;stroke:none;stroke-width:2.30423;stroke-linecap:square;stroke-linejoin:round;stroke-opacity:0"
       id="rect10"
       width="38.943314"
       height="283.44788"
       x="255.15361"
       y="1.1521102"
       transform="matrix(1,0,0.00383053,0.99999266,0,0)" />
    <rect
       style="opacity:0.672632;fill:#ffb50f;fill-rule:evenodd;stroke:none;stroke-width:2.30423;stroke-linecap:square;stroke-linejoin:round;stroke-opacity:0"
       id="rect11"
       width="38.943314"
       height="283.44788"
       x="297.6236"
       y="1.1521102"
       transform="matrix(1,0,0.00383053,0.99999266,0,0)" />
    <rect
       style="opacity:0.606171;fill:#d39200;fill-opacity:1;fill-rule:evenodd;stroke:none;stroke-width:2.30423;stroke-linecap:square;stroke-linejoin:round;stroke-opacity:0"
       id="rect12"
       width="38.943314"
       height="283.44788"
       x="340.0936"
       y="1.1521107"
       transform="matrix(1,0,0.00383053,0.99999266,0,0)" />
    <rect
       style="opacity:0.606171;fill:#d39200;fill-opacity:1;fill-rule:evenodd;stroke:none;stroke-width:2.30423;stroke-linecap:square;stroke-linejoin:round;stroke-opacity:0"
       id="rect13"
       width="38.943314"
       height="283.44788"
       x="425.0336"
       y="1.1521107"
       transform="matrix(1,0,0.00383053,0.99999266,0,0)" />
    <rect
       style="opacity:0.672632;fill:#ffb50f;fill-rule:evenodd;stroke:none;stroke-width:2.30423;stroke-linecap:square;stroke-linejoin:round;stroke-opacity:0"
       id="rect15"
       width="38.943314"
       height="283.44788"
       x="467.5036"
       y="1.1521107"
       transform="matrix(1,0,0.00383053,0.99999266,0,0)" />
    <rect
       style="opacity:0.672632;fill:#ffb50f;fill-rule:evenodd;stroke:none;stroke-width:2.30423;stroke-linecap:square;stroke-linejoin:round;stroke-opacity:0"
       id="rect17"
       width="38.943314"
       height="283.44788"
       x="382.5636"
       y="1.1521107"
       transform="matrix(1,0,0.00383053,0.99999266,0,0)" />
  </g>
  <g
     inkscape:groupmode="layer"
     id="layer2"
     inkscape:label="Maqueteando">
    <rect
       style="opacity:0.606171;fill:#ff00ff;fill-opacity:1;fill-rule:evenodd;stroke:none;stroke-width:2.117;stroke-linecap:square;stroke-linejoin:round;stroke-opacity:0"
       id="rect18"
       width="89.598007"
       height="53.536137"
       x="20.352562"
       y="27.631556" />
    <rect
       style="opacity:0.606171;fill:#c83737;fill-opacity:1;fill-rule:evenodd;stroke:none;stroke-width:2.117;stroke-linecap:square;stroke-linejoin:round;stroke-opacity:0"
       id="rect19"
       width="89.598007"
       height="105.92096"
       x="20.352562"
       y="94.983467" />
    <rect
       style="opacity:0.606171;fill:#d4aa00;fill-opacity:1;fill-rule:evenodd;stroke:none;stroke-width:2.117;stroke-linecap:square;stroke-linejoin:round;stroke-opacity:0"
       id="rect20"
       width="467.16995"
       height="42.022995"
       x="20.352562"
       y="223.93074" />
    <rect
       style="opacity:0.606171;fill:#552200;fill-opacity:1;fill-rule:evenodd;stroke:none;stroke-width:2.117;stroke-linecap:square;stroke-linejoin:round;stroke-opacity:0"
       id="rect21"
       width="205.55763"
       height="173.27287"
       x="127.74802"
       y="27.631556" />
    <rect
       style="opacity:0.606171;fill:#165016;fill-opacity:1;fill-rule:evenodd;stroke:none;stroke-width:2.117;stroke-linecap:square;stroke-linejoin:round;stroke-opacity:0"
       id="rect22"
       width="145.06567"
       height="93.832169"
       x="349.99973"
       y="27.631556" />
    <rect
       style="opacity:0.606171;fill:#37c871;fill-opacity:1;fill-rule:evenodd;stroke:none;stroke-width:2.117;stroke-linecap:square;stroke-linejoin:round;stroke-opacity:0"
       id="rect23"
       width="52.582825"
       height="65.624924"
       x="349.99973"
       y="135.2795" />
    <rect
       style="opacity:0.606171;fill:#37c871;fill-opacity:1;fill-rule:evenodd;stroke:none;stroke-width:2.117;stroke-linecap:square;stroke-linejoin:round;stroke-opacity:0"
       id="rect24"
       width="73.011177"
       height="58.029423"
       x="422.0542"
       y="142.875" />
    <path
       style="opacity:0.606171;fill:#37c871;fill-opacity:1;fill-rule:evenodd;stroke:none;stroke-width:2.117;stroke-linecap:square;stroke-linejoin:round;stroke-opacity:0"
       id="path24"
       sodipodi:type="arc"
       sodipodi:cx="178.16599"
       sodipodi:cy="76.994179"
       sodipodi:rx="17.557552"
       sodipodi:ry="22.594557"
       sodipodi:start="5.8715342"
       sodipodi:end="5.8415117"
       sodipodi:open="true"
       sodipodi:arc-type="arc"
       d="M 194.2568,67.953576 A 17.557552,22.594557 0 0 1 185.31174,97.632781 17.557552,22.594557 0 0 1 162.18243,86.34459 17.557552,22.594557 0 0 1 170.7803,56.495937 17.557552,22.594557 0 0 1 194.03867,67.336066" />
    <path
       style="opacity:0.606171;fill:#37c871;fill-opacity:1;fill-rule:evenodd;stroke:none;stroke-width:2.117;stroke-linecap:square;stroke-linejoin:round;stroke-opacity:0"
       id="path25"
       sodipodi:type="arc"
       sodipodi:cx="286.74106"
       sodipodi:cy="155.44823"
       sodipodi:rx="11.56849"
       sodipodi:ry="23.622675"
       sodipodi:start="5.8715342"
       sodipodi:end="5.8415117"
       sodipodi:open="true"
       sodipodi:arc-type="arc"
       d="m 297.34313,145.99625 a 11.56849,23.622675 0 0 1 -5.89381,31.0297 11.56849,23.622675 0 0 1 -15.23966,-11.80184 11.56849,23.622675 0 0 1 5.66505,-31.20685 11.56849,23.622675 0 0 1 15.3247,11.33338" />
    <path
       style="opacity:0.606171;fill:#37c871;fill-opacity:1;fill-rule:evenodd;stroke:none;stroke-width:2.117;stroke-linecap:square;stroke-linejoin:round;stroke-opacity:0"
       id="path26"
       sodipodi:type="arc"
       sodipodi:cx="64.283424"
       sodipodi:cy="149.27908"
       sodipodi:rx="20.9946"
       sodipodi:ry="22.610626"
       sodipodi:start="5.8715342"
       sodipodi:end="5.8415117"
       sodipodi:open="true"
       sodipodi:arc-type="arc"
       d="M 83.524166,140.23205 A 20.9946,22.610626 0 0 1 72.828024,169.93236 20.9946,22.610626 0 0 1 45.170947,158.63614 20.9946,22.610626 0 0 1 55.451926,128.76626 20.9946,22.610626 0 0 1 83.263331,139.6141" />
    <path
       style="opacity:0.606171;fill:#37c871;fill-opacity:1;fill-rule:evenodd;stroke:none;stroke-width:2.117;stroke-linecap:square;stroke-linejoin:round;stroke-opacity:0"
       id="path27"
       sodipodi:type="arc"
       sodipodi:cx="462.86325"
       sodipodi:cy="63.610142"
       sodipodi:rx="17.810709"
       sodipodi:ry="17.557549"
       sodipodi:start="5.8715342"
       sodipodi:end="5.8415117"
       sodipodi:open="true"
       sodipodi:arc-type="arc"
       d="m 479.18608,56.584962 a 17.810709,17.557549 0 0 1 -9.07404,23.062815 17.810709,17.557549 0 0 1 -23.4628,-8.771713 17.810709,17.557549 0 0 1 8.72183,-23.194488 17.810709,17.557549 0 0 1 23.59373,8.423538" />
  </g>
</svg>
